<?xml version="1.0" encoding="UTF-8"?>
<svg width="24px" height="18px" viewBox="0 0 24 18" version="1.1" xmlns="http://www.w3.org/2000/svg" xmlns:xlink="http://www.w3.org/1999/xlink">
    <!-- Generator: Sketch 46 (44423) - http://www.bohemiancoding.com/sketch -->
    <title>laptop</title>
    <desc>Created with Sketch.</desc>
    <defs></defs>
    <g id="icons" stroke="none" stroke-width="1" fill="none" fill-rule="evenodd">
        <g id="Artboard" transform="translate(-64.000000, -254.000000)" fill-rule="nonzero" fill="#3700B3">
            <path d="M85,265 L88,269 L88,269.998957 C88,271.104102 87.1029738,272 85.9950534,272 L66.0049466,272 C64.8976452,272 64,271.099901 64,269.998957 L64,269 L67,265 L67,256.00853 C67,254.89925 67.8926228,254 68.9950893,254 L83.0049107,254 C84.1067681,254 85,254.90195 85,256.00853 L85,265 Z M84,265 L84,256.00853 C84,255.451599 83.5518396,255 83.0049107,255 L68.9950893,255 C68.4466741,255 68,255.449778 68,256.00853 L68,265 L84,265 Z M65,269.333333 L65,269.998957 C65,270.548955 65.4512699,271 66.0049466,271 L85.9950534,271 C86.5508634,271 87,270.551642 87,269.998957 L87,269.333333 L84.5,266 L67.5,266 L65,269.333333 Z M68,270 L68,269 L84,269 L84,270 L68,270 Z M70,268 L70,267 L82,267 L82,268 L70,268 Z" id="laptop"></path>
        </g>
    </g>
</svg>